HIERARCHY
ROOT Hips
{
	OFFSET 0.000000 0.000000 0.000000
	CHANNELS 6 Xposition Yposition Zposition Zrotation Yrotation Xrotation 
	JOINT LHipJoint
	{
		OFFSET 0.000000 0.000000 0.000000
		CHANNELS 3 Zrotation Yrotation Xrotation
		JOINT LeftUpLeg
		{
			OFFSET 1.363060 -1.794630 0.839290
			CHANNELS 3 Zrotation Yrotation Xrotation
			JOINT LeftLeg
			{
				OFFSET 2.448110 -6.726130 0.000000
				CHANNELS 3 Zrotation Yrotation Xrotation
				JOINT LeftFoot
				{
					OFFSET 2.562200 -7.039590 0.000000
					CHANNELS 3 Zrotation Yrotation Xrotation
					JOINT LeftToeBase
					{
						OFFSET 0.157640 -0.433110 2.322550
						CHANNELS 3 Zrotation Yrotation Xrotation
						End Site
						{
							OFFSET 0.000000 0.000000 0.000000
						}
					}
				}
			}
		}
	}
	JOINT RHipJoint
	{
		OFFSET 0.000000 0.000000 0.000000
		CHANNELS 3 Zrotation Yrotation Xrotation
		JOINT RightUpLeg
		{
			OFFSET -1.305520 -1.794630 0.839290
			CHANNELS 3 Zrotation Yrotation Xrotation
			JOINT RightLeg
			{
				OFFSET -2.542530 -6.985550 0.000000
				CHANNELS 3 Zrotation Yrotation Xrotation
				JOINT RightFoot
				{
					OFFSET -2.568260 -7.056230 0.000000
					CHANNELS 3 Zrotation Yrotation Xrotation
					JOINT RightToeBase
					{
						OFFSET -0.164730 -0.452590 2.363150
						CHANNELS 3 Zrotation Yrotation Xrotation
						End Site
						{
							OFFSET 0.000000 0.000000 0.000000
						}
					}
				}
			}
		}
	}
	JOINT LowerBack
	{
		OFFSET 0.000000 0.000000 0.000000
		CHANNELS 3 Zrotation Yrotation Xrotation
		JOINT Spine
		{
			OFFSET 0.028270 2.035590 -0.193380
			CHANNELS 3 Zrotation Yrotation Xrotation
			JOINT Spine1
			{
				OFFSET 0.056720 2.048850 -0.042750
				CHANNELS 3 Zrotation Yrotation Xrotation
				JOINT Neck
				{
					OFFSET 0.000000 0.000000 0.000000
					CHANNELS 3 Zrotation Yrotation Xrotation
					JOINT Neck1
					{
						OFFSET -0.054170 1.746240 0.172020
						CHANNELS 3 Zrotation Yrotation Xrotation
						JOINT Head
						{
							OFFSET 0.104070 1.761360 -0.123970
							CHANNELS 3 Zrotation Yrotation Xrotation
							End Site
							{
								OFFSET 0.000000 0.000000 0.000000
							}
						}
					}
				}
				JOINT LeftShoulder
				{
					OFFSET 0.000000 0.000000 0.000000
					CHANNELS 3 Zrotation Yrotation Xrotation
					JOINT LeftArm
					{
						OFFSET 3.362410 1.200890 -0.311210
						CHANNELS 3 Zrotation Yrotation Xrotation
						JOINT LeftForeArm
						{
							OFFSET 4.983000 -0.000000 -0.000000
							CHANNELS 3 Zrotation Yrotation Xrotation
							JOINT LeftHand
							{
								OFFSET 3.483560 -0.000000 -0.000000
								CHANNELS 3 Zrotation Yrotation Xrotation
								JOINT LeftFingerBase
								{
									OFFSET 0.000000 0.000000 0.000000
									CHANNELS 3 Zrotation Yrotation Xrotation
									JOINT LeftHandIndex1
									{
										OFFSET 0.715260 -0.000000 -0.000000
										CHANNELS 3 Zrotation Yrotation Xrotation
										End Site
										{
											OFFSET 0.000000 0.000000 0.000000
										}
									}
								}
								JOINT LThumb
								{
									OFFSET 0.000000 0.000000 0.000000
									CHANNELS 3 Zrotation Yrotation Xrotation
									End Site
									{
										OFFSET 0.000000 0.000000 0.000000
									}
								}
							}
						}
					}
				}
				JOINT RightShoulder
				{
					OFFSET 0.000000 0.000000 0.000000
					CHANNELS 3 Zrotation Yrotation Xrotation
					JOINT RightArm
					{
						OFFSET -3.136600 1.374050 -0.404650
						CHANNELS 3 Zrotation Yrotation Xrotation
						JOINT RightForeArm
						{
							OFFSET -5.241900 -0.000000 -0.000000
							CHANNELS 3 Zrotation Yrotation Xrotation
							JOINT RightHand
							{
								OFFSET -3.444170 -0.000000 -0.000000
								CHANNELS 3 Zrotation Yrotation Xrotation
								JOINT RightFingerBase
								{
									OFFSET 0.000000 0.000000 0.000000
									CHANNELS 3 Zrotation Yrotation Xrotation
									JOINT RightHandIndex1
									{
										OFFSET -0.622530 -0.000000 -0.000000
										CHANNELS 3 Zrotation Yrotation Xrotation
										End Site
										{
											OFFSET 0.000000 0.000000 0.000000
										}
									}
								}
								JOINT RThumb
								{
									OFFSET 0.000000 0.000000 0.000000
									CHANNELS 3 Zrotation Yrotation Xrotation
									End Site
									{
										OFFSET 0.000000 0.000000 0.000000
									}
								}
							}
						}
					}
				}
			}
		}
	}
}
MOTION
Frames: 6
Frame Time: 0.008333
4.759006 17.293817 0.967139 -177.034969 -68.103102 -173.916878 -12.161731 2.460090 -0.087483 -7.286187 29.341120 -12.636535 -2.679544 -1.733740 1.280889 1.714226 12.986011 -4.386197 0.686700 -0.000000 -26.265300 8.206105 -3.542252 6.383487 4.968040 5.854828 -13.484408 3.392764 1.250859 0.895195 1.217634 8.593622 0.122545 0.812199 -0.000000 -29.949400 4.155295 2.928923 -8.815886 0.028465 2.355167 -5.372186 -4.724174 2.386424 -4.414560 5.051903 1.169019 5.179747 -1.758195 -0.315538 3.549544 0.000000 0.000000 0.000000 11.046099 16.001329 -6.755616 -10.631714 -60.140722 -60.000749 175.493480 -59.212736 179.561924 29.447056 -10.923820 -3.232758 -0.529249 1.124899 0.000000 0.000000 0.000000 0.000000 0.000000 0.000000 0.000000 -2.390202 -0.549957 -8.324497 51.180828 63.788751 -24.186393 -174.716509 58.368786 179.675184 -18.826832 17.778572 -3.185688 0.076510 -1.133931 0.000000 0.000000 0.000000 0.000000 0.000000 0.000000 0.000000 
4.746841 17.293880 0.973435 -177.147994 -66.726453 -173.399605 -12.187474 2.450572 -0.152657 -7.685923 29.983288 -13.177590 -2.727865 -1.762149 1.346607 1.783443 13.428875 -4.539413 0.678800 0.000000 -26.039400 8.139311 -3.570144 6.624148 4.820875 6.493656 -14.315142 3.440974 1.242351 1.003257 1.329366 9.364546 0.449958 0.956300 0.000000 -30.422700 4.341485 3.035000 -9.003903 0.066824 2.440584 -5.421126 -4.704179 2.468040 -4.448683 5.081685 1.246206 5.108880 -1.747488 -0.314235 3.533031 0.000000 0.000000 0.000000 11.286373 16.283985 -6.783540 -8.495656 -59.675938 -62.375066 175.584916 -59.771194 179.565433 29.380094 -10.532730 -3.115507 -0.527534 1.110467 0.000000 0.000000 0.000000 0.000000 0.000000 0.000000 0.000000 -2.304384 -0.306570 -8.326409 51.740422 64.188748 -23.682570 -174.722532 58.586421 179.674183 -18.796225 17.873077 -3.196488 0.072767 -1.136247 0.000000 0.000000 0.000000 0.000000 0.000000 0.000000 0.000000 
4.737169 17.293794 0.979934 -177.251648 -65.347409 -172.884583 -12.209123 2.443598 -0.223139 -8.110250 30.602372 -13.732842 -2.777915 -1.785735 1.403814 1.852971 13.864364 -4.685595 0.671000 0.000000 -25.798400 8.073511 -3.586227 6.856718 4.658182 7.148639 -15.140006 3.485430 1.236434 1.090546 1.436236 10.105397 0.788205 1.105100 -0.000000 -30.870100 4.512077 3.104244 -9.173031 0.103748 2.489355 -5.469129 -4.690081 2.513371 -4.493099 5.127430 1.330837 5.037202 -1.735364 -0.312913 3.516758 0.000000 0.000000 0.000000 11.535826 16.455513 -6.781347 -6.151950 -59.032929 -64.828955 175.704097 -60.422169 179.569494 29.266303 -10.158192 -2.998473 -0.525013 1.096558 0.000000 0.000000 0.000000 0.000000 0.000000 0.000000 0.000000 -2.199014 -0.041216 -8.314263 52.360581 64.601601 -23.135835 -174.736006 58.824910 179.673189 -18.772131 17.957073 -3.206580 0.069342 -1.138387 0.000000 0.000000 0.000000 0.000000 0.000000 0.000000 0.000000 
4.730428 17.293610 0.986891 -177.346501 -63.979199 -172.382320 -12.226439 2.438901 -0.302912 -8.549061 31.203076 -14.289423 -2.829614 -1.803171 1.456184 1.920697 14.280488 -4.822484 0.663100 0.000000 -25.550200 8.010415 -3.589310 7.075254 4.481263 7.809897 -15.942337 3.525500 1.232300 1.159878 1.537384 10.811472 1.131805 1.257200 0.000000 -31.274200 4.662880 3.134522 -9.312947 0.138679 2.499859 -5.514615 -4.682162 2.520679 -4.549007 5.194333 1.422859 4.964788 -1.719558 -0.311463 3.500732 0.000000 0.000000 0.000000 11.801408 16.502540 -6.743700 -3.656659 -58.198168 -67.320489 175.848264 -61.143160 179.573429 29.158730 -9.889379 -2.912060 -0.523081 1.085281 0.000000 0.000000 0.000000 0.000000 0.000000 0.000000 0.000000 -2.079303 0.243970 -8.287023 53.026070 65.011063 -22.562702 -174.755499 59.073941 179.672196 -18.760520 18.022535 -3.215664 0.066487 -1.140188 0.000000 0.000000 0.000000 0.000000 0.000000 0.000000 0.000000 
4.726660 17.293395 0.994189 -177.434531 -62.634783 -171.889980 -12.237760 2.437052 -0.390940 -9.003391 31.781662 -14.850611 -2.883327 -1.814193 1.508127 1.985666 14.671307 -4.949315 0.655301 0.000000 -25.301200 7.951723 -3.579541 7.280012 4.288148 8.475328 -16.721998 3.560314 1.229999 1.213106 1.631553 11.471572 1.475324 1.409800 -0.000000 -31.626701 4.785159 3.124458 -9.427023 0.170190 2.471397 -5.557972 -4.679870 2.488888 -4.615249 5.291278 1.520351 4.891185 -1.697941 -0.309758 3.484833 0.000000 0.000000 0.000000 12.093998 16.423145 -6.670116 -1.087369 -57.185514 -69.809167 176.011762 -61.923515 179.576509 29.115019 -9.809338 -2.884364 -0.522874 1.078425 0.000000 0.000000 0.000000 0.000000 0.000000 0.000000 0.000000 -1.946535 0.543526 -8.244593 53.720838 65.400775 -21.978391 -174.779391 59.326246 179.671196 -18.765867 18.062525 -3.223345 0.064347 -1.141498 0.000000 0.000000 0.000000 0.000000 0.000000 0.000000 0.000000 
4.726035 17.293177 1.001922 -177.515427 -61.327990 -171.413858 -12.242176 2.438221 -0.488516 -9.466718 32.341025 -15.412018 -2.939319 -1.817991 1.564036 2.046076 15.026897 -5.063936 0.647600 0.000000 -25.063400 7.899181 -3.556680 7.468298 4.080900 9.137067 -17.468325 3.589435 1.229585 1.248566 1.717827 12.077393 1.815517 1.560300 -0.000001 -31.920000 4.872944 3.072459 -9.512469 0.197878 2.403109 -5.598055 -4.680865 2.416897 -4.690418 5.425622 1.621368 4.816017 -1.668571 -0.307674 3.468874 0.000000 0.000000 0.000000 12.424312 16.228576 -6.564161 1.465574 -56.036548 -72.266695 176.187849 -62.764384 179.578090 29.191852 -9.994060 -2.941489 -0.525139 1.077393 0.000000 0.000000 0.000000 0.000000 0.000000 0.000000 0.000000 -1.802134 0.850380 -8.188976 54.424803 65.759389 -21.399280 -174.804993 59.572381 179.670172 -18.789953 18.073316 -3.229325 0.062951 -1.142243 0.000000 0.000000 0.000000 0.000000 0.000000 0.000000 0.000000 
